<svg width="24" height="25" viewBox="0 0 24 25" fill="none" xmlns="http://www.w3.org/2000/svg">
<path fill-rule="evenodd" clip-rule="evenodd" d="M7.62375 0.491385C7.01813 0.498506 6.53412 0.997685 6.54595 1.60331V2.68967H3.27828C1.48459 2.68967 0 4.17407 0 5.96794V21.2326C0 23.0263 1.48459 24.5087 3.27828 24.5087H20.7239C22.5176 24.5087 24 23.0263 24 21.2326V5.96794C24 4.17407 22.5176 2.68967 20.7239 2.68967H17.4542V1.60331C17.4663 0.985065 16.9625 0.480448 16.3443 0.491385C15.7413 0.501975 15.2611 1.00026 15.2729 1.60331V2.68967H13.0916V1.60331C13.1037 0.987635 12.6039 0.484281 11.9883 0.491385C11.3817 0.497228 10.8965 0.996937 10.9083 1.60331V2.68967H8.72703V1.60331C8.73908 0.987635 8.23933 0.484281 7.6237 0.491385H7.62375ZM3.27828 4.87317H20.7239C21.3471 4.87317 21.8189 5.34498 21.8189 5.96813V9.23561H2.18108V5.96794C2.18108 5.34498 2.65489 4.87317 3.27805 4.87317H3.27828ZM2.18131 11.4169H21.8191V21.2326C21.8191 21.8557 21.3473 22.3275 20.7242 22.3275L3.27851 22.3273C2.65536 22.3273 2.18155 21.8555 2.18155 21.2326L2.18131 11.4169ZM7.6388 13.5981C7.03645 13.5981 6.54824 14.0863 6.54824 14.6886C6.54824 15.291 7.03645 15.7792 7.6388 15.7792C8.24115 15.7792 8.72936 15.291 8.72936 14.6886C8.72936 14.0863 8.24115 13.5981 7.6388 13.5981ZM12.0012 13.5981C11.3989 13.5981 10.9107 14.0863 10.9107 14.6886C10.9107 15.291 11.3989 15.7792 12.0012 15.7792C12.6036 15.7792 13.0918 15.291 13.0918 14.6886C13.0918 14.0863 12.6036 13.5981 12.0012 13.5981ZM16.3637 13.5981C15.7613 13.5981 15.2731 14.0863 15.2731 14.6886C15.2731 15.291 15.7613 15.7792 16.3637 15.7792C16.966 15.7792 17.4542 15.291 17.4542 14.6886C17.4542 14.0863 16.966 13.5981 16.3637 13.5981ZM7.63852 17.9605C7.03617 17.9605 6.54796 18.4487 6.54796 19.0511C6.54796 19.6534 7.03617 20.1416 7.63852 20.1416C8.24087 20.1416 8.72908 19.6534 8.72908 19.0511C8.72908 18.4487 8.24087 17.9605 7.63852 17.9605ZM12.001 17.9605C11.3986 17.9605 10.9104 18.4487 10.9104 19.0511C10.9104 19.6534 11.3986 20.1416 12.001 20.1416C12.6033 20.1416 13.0915 19.6534 13.0915 19.0511C13.0915 18.4487 12.6033 17.9605 12.001 17.9605ZM16.3634 17.9605C15.761 17.9605 15.2728 18.4487 15.2728 19.0511C15.2728 19.6534 15.761 20.1416 16.3634 20.1416C16.9657 20.1416 17.454 19.6534 17.454 19.0511C17.454 18.4487 16.9657 17.9605 16.3634 17.9605Z" fill="white"/>
</svg>
